<svg width="110" height="112" viewBox="0 0 110 112" fill="none" xmlns="http://www.w3.org/2000/svg">
<path d="M4 71.7464C6.14257 71.6337 8.11233 69.9923 10.1834 69.4428C15.1641 68.1214 20.2239 66.8138 25.0695 65.0645C30.4972 63.1052 36.0306 61.4084 41.3432 59.1505C45.7551 57.2754 50.421 55.6731 55.0572 54.4759C64.2009 52.1146 73.2871 49.5344 82.5662 47.7401C87.416 46.8023 92.2986 46.2903 97.2232 45.9349C99.9095 45.7411 102.67 45.3152 105.36 45.3152" stroke="black" stroke-width="8" stroke-linecap="round"/>
<path d="M11.0322 26.8861C12.673 27.355 13.9734 29.2847 15.1679 30.3887C17.5078 32.5514 19.7767 34.8255 22.1732 36.9225C24.8074 39.2274 28.207 40.6661 30.6737 43.1328" stroke="black" stroke-width="8" stroke-linecap="round"/>
<path d="M26.3089 24.4612C25.3058 24.6436 24.4929 25.8316 23.8705 26.5359C22.7935 27.7546 21.6278 28.8791 20.4892 30.0385C18.853 31.7044 16.9995 33.5676 15.9897 35.6965C15.1418 37.4838 14.242 39.5116 13.2145 41.1929C12.8215 41.8361 12.6365 43.5431 12.0021 43.8603" stroke="black" stroke-width="8" stroke-linecap="round"/>
<path d="M76.2615 4.81969C75.4876 4.99167 74.6845 6.44124 74.2003 6.98861C73.3668 7.93087 72.1993 8.84608 71.762 10.0332C71.4186 10.9652 70.7299 11.7527 70.4552 12.714C70.0796 14.0288 69.9568 15.4744 69.9568 16.8363C69.9568 21.271 73.7509 26.3561 78.0128 27.6675C80.1729 28.3321 82.4573 26.2224 84.1558 25.0675C86.2918 23.615 88.2369 19.2636 88.3724 16.6881C88.5467 13.3772 88.0014 9.71449 85.8263 7.05597C84.0317 4.86253 81.1928 4.59351 78.6864 4.09222" stroke="black" stroke-width="8" stroke-linecap="round"/>
<path d="M27.2789 77.3237C25.5395 77.3237 24.1654 82.4071 23.6954 83.8169C23.2243 85.2304 23.1566 86.7528 23.1566 88.2356C23.1566 89.9676 24.066 91.3925 24.854 92.8698C26.4931 95.9432 28.0107 98.2703 31.1048 100.118C34.4637 102.123 39.3443 99.5623 41.195 96.6149C44.0518 92.0652 44.2392 85.1965 40.5079 81.0149C38.3454 78.5913 34.6192 77.0553 31.5224 76.3672C30.5494 76.151 29.3737 76.4857 28.4913 76.8387" stroke="black" stroke-width="8" stroke-linecap="round"/>
<path d="M80.6262 70.7765C82.0801 72.2304 83.297 73.8654 84.6677 75.3837C86.1805 77.0595 88.166 78.663 89.8947 80.1257C92.3362 82.1916 94.9662 84.6149 97.8429 86.0532" stroke="black" stroke-width="8" stroke-linecap="round"/>
<path d="M94.6905 66.4117C93.8184 66.9931 93.426 68.1786 92.9931 69.0926C92.4025 70.3394 91.668 71.4867 91.0532 72.7164C90.1505 74.5217 89.6818 76.4947 88.8169 78.2936C87.9449 80.1074 87.4375 82.0511 86.5537 83.8709C85.9343 85.146 85.3323 86.6279 84.991 87.9932" stroke="black" stroke-width="8" stroke-linecap="round"/>
<path d="M41.1698 10.7052C43.581 11.6697 44.7831 17.9597 45.3888 20.1806C46.7764 25.2686 47.832 30.5582 48.7778 35.7424C51.6304 51.379 53.6842 67.0919 58.5298 82.2894C61.2038 90.6761 63.5428 99.6466 67.3136 107.188" stroke="black" stroke-width="8" stroke-linecap="round"/>
</svg>
